<?xml version="1.0" encoding="utf-8"?>
<!-- Generator: Adobe Illustrator 16.2.1, SVG Export Plug-In . SVG Version: 6.00 Build 0)  -->
<!DOCTYPE svg PUBLIC "-//W3C//DTD SVG 1.1 Tiny//EN" "http://www.w3.org/Graphics/SVG/1.1/DTD/svg11-tiny.dtd">
<svg version="1.1" baseProfile="tiny" id="Layer_1" xmlns="http://www.w3.org/2000/svg" xmlns:xlink="http://www.w3.org/1999/xlink"
	 x="0px" y="0px" width="200px" height="202.7px" viewBox="0 0 200 202.7" xml:space="preserve">
<g>
	<path fill-rule="evenodd" fill="#CBCBCB" d="M104.9,72.5c-0.7,3.9-1.2,7.8-1.4,11.7c-0.1,2.1,1.3,9.4-2.7,9.4
		c-3.2-0.1-0.4-6.9-0.2-8.8c0.2-1.6,1.3-10.1-0.7-10.5c-3.8-0.8-7.7,0.4-11.1,1.9c-1.6,0.7-3.1,1.4-4.6,2.2
		c-1.7,0.8-4.4,0.6-5.8,1.7c-2.9,2.2-6.1,3.9-8.5,6.6c-1.7,2-4.3,2.8-3.2,5.3c0.8,1.6,0.3,3.6,1.7,4.9c2.5,2.3,6.8,4.1,10,5.2
		c3.6,1.2,6.6,3.4,10.3,4.5c8,2.4,16.2,3,24.2,0.3c7.7-2.5,15.1-5.9,21.8-10.3c1.1-0.7,1.4-1.9,2.1-2.9c0.9-1.3,2.6-1.6,3.6-2.9
		c0.9-1.1,1.1-2.8,2.9-2.5c2.1,0.4,2.7,0.8,5.1,0.5c-0.2,1.8-4,3.9-5.8,3.8c-0.9,0-1.9,5.8-2,6.5c-0.9,7.2-0.1,14.8-0.5,22.1
		c-1,15.9-2.7,31.5-1.2,47.4c0.3,3.6,1.3,7.1,1.8,10.6c0.4,2.6,0.1,6.5,2.4,8.3c1.9,1.5-2.3,5.2-3.6,5.9c-2.8,1.6-5.1,2.4-8,3.5
		c-6.5,2.6-11.7,5.9-19,5.9c-3.1,0-6.2-0.5-9.3-0.5c-2.3,0-5.2-0.3-7.6-0.7c-2.9-0.5-5.1-1.7-8.1-1.9c-3.2-0.2-5.8-2.2-8.8-2.7
		c-3.5-0.7-6.8-2.4-10-3.9c-1.8-0.9-6.5-1.4-7-3.7c-0.4-2.5,1.3-6.3,1.7-8.9c0.6-3.4,1.4-6.8,1.2-10.3c-0.1-2.8,1.8-6.2,2.2-9.1
		c0.6-3.8,1.8-7.2,1.6-11.1c-0.5-7.7-0.8-15.5-1.3-23.2c-0.5-7.6-2-15-2.7-22.5c-0.3-3.1-1.3-5-2.2-7.9c-0.7-2.3-3.4-4.5-1.5-7
		c1.5-2,4.4-2.6,6.1-4.6c2.5-2.9,6.2-4.7,9.3-7c3.3-2.4,8.8-3.3,12.6-5c1.9-0.9,3.8-1.6,5.8-1.8c1.7-0.2,5.1,0.4,6.3-1.1
		c1.9-2.3,0.5-12.1,0.1-15c-0.8-4.9-0.9-10.2-1.2-15.2c-0.3-4.2-2-10.8,0.5-14.4c0.7-1,1.5-2,0.1-2.7c-1.2-0.6-1.8-4.5-4.3-2.5
		c-1.9,1.5-4.2,2.4-6.4,3.3c-1.8,0.7-4.8,0.2-6.3,0.9c-2,0.9-12.1,3.8-13.4,1.5c-1.4,1.8-4.9,2.1-7.3,3.3c-1.5,0.8-3.2,1-4.8,1.2
		c-0.8,0.1-1.3-0.9-1.9-0.8c-3.5,0.5-7.1-0.2-10.7-0.2c-3.4,0-6.9-0.8-9.9-0.5c-2.5,0.3-5.7,0.6-8.2,0c-3.3-0.8-6.7,0.1-10.1-0.4
		c-3.3-0.5-6.1-1.6-8.9-3.5c-1.9-1.3-6.5-2.6-7.8-4.3c-1.1-1.4,1.3-5.3,2-6.5c1.9-3.5,3.1-3.3,6.5-4.7c7-2.8,14.3-3.9,21.7-5.1
		C37.6,5.5,45,4.2,52.1,4.9c6.6,0.7,12.5,3.6,18.8,4.8c6.7,1.2,13.1,3.6,19.9,3.7c3,0,5.8,1.7,8.8,1.9c2,0.2,5.6-2.8,7.3-3.7
		c6.4-3.4,14.5-3.3,21.6-4.5c7.9-1.3,15.6-3.1,23.4-4.9c3.2-0.7,6.2-0.1,9.4-0.7c3.7-0.7,6.8-1.2,10.5-1.5c4-0.3,7.5,0,11.5,0.5
		c3.7,0.4,7.7-0.9,11.3,0.4c2.4,0.8,5.9,3.3,5.5,6.3c-0.2,1.6-1,4.8-2,6c-1.9,2.3-3.5,5-5.6,7c-2.3,2.2-7,3.1-10,4.2
		c-2.9,1-5.1,3.3-8.2,3.8c-3.6,0.5-7.4,0.9-11,0.8c-7.8-0.1-15.4-0.7-23.1-1.7c-3.4-0.4-6.7,0.1-10.1-0.1c-0.8-0.1-1.3-1-2.1-0.8
		c-1.7,0.5-2.2,1.2-4.2,0.8c-3.4-0.7-7.2-0.9-10.5-2c-4-1.3-6.6-3.3-11-3.7c1,5.6,0.6,11.5,0.9,17.2c0.3,6.4,0.8,12.8,1.1,19.2
		c0.1,2.8,0.3,5.7,0.5,8.5c0.3,3.6,1.4,3.1,4.7,3.3c2.8,0.1,5.2,1.2,7.9,1.7c3.2,0.6,6.5,0.8,9.6,1.8c5.1,1.6,9.8,5.8,13.5,9.5
		c1.4,1.4,3.8,4.3-0.1,4.4c-2.5,0.1-4.7-4.2-6.7-5.5c-1.9-1.3-3.8-3.1-5.7-4.3c-2.4-1.4-5.7-1.8-8.3-2.4
		C114.7,73.9,109.9,73.3,104.9,72.5C104.6,74.3,107.6,72.9,104.9,72.5z M138.1,190.6c-1.7-6.7-1.8-14-2.6-20.9
		c-0.9-7.8-0.9-15.4-0.7-23.3c0.4-14.4,1.6-29,2.6-43.4c0.2-3.2-0.9-4.1-3.8-2.5c-3,1.7-5.7,4-9.1,4.9c-5.5,1.4-10.5,4.4-16.3,5
		c-3.3,0.3-6.5,0.9-9.8,1.4c-3,0.4-6-1-8.8-1.7c-6-1.4-11.8-4.4-17.6-6.6c-4.6-1.8-3.5,2.2-3.3,5.8c0.1,3.5,0.9,6.8,1.6,10.2
		c1.2,6.2,0.7,12.5,0.9,18.6c0.2,7,1.7,13.3-0.2,20.1c-2.1,7.8-3.3,15.4-4.3,23.4c-0.5,3.9-1.3,5.2,2.4,6.9c3.3,1.5,6.6,3,10.1,4.2
		c6.2,2.2,12.5,3.7,18.9,5.2c6.5,1.5,14.4,1.5,21,0.5c3.5-0.5,6.2-2.4,9.4-3.8C131.7,193.2,134.9,192.5,138.1,190.6
		C137.7,189,137.8,190.8,138.1,190.6z M103.6,16c3.6,4.8,13.4,6.1,19.1,7.2c3.9,0.8,8,0.5,12,0.4c4.5,0,8.8,0.8,13.3,1.2
		c4.3,0.4,8.6-0.1,13,0.2c5.1,0.3,10,0.4,15-0.9c4-1.1,7.1-3.9,11-5.2c3.5-1.2,6.9-3.8,8.7-7.2c2-3.9-1.6-6.3-5.4-4.8
		c-2.5,1-8.6-1.7-11.1-2.5c-3.8-1.3-7.6-1.2-11.6-1c-4.1,0.2-9.7,0.5-13.6,1.7c-1.4,0.4-1.9-0.3-3.4-0.1c-2.3,0.4-4.5,0.8-6.8,1.3
		c-5.1,1.1-10.1,2.6-15.1,3.9C120.3,12.4,110.8,10.2,103.6,16C104.4,17,104,15.7,103.6,16z M5.3,19.5c8.3,5.7,15.6,5.1,25.2,6.2
		c3.9,0.4,8.4-0.4,12.4-0.3c5.1,0.2,10.4,1.2,15.4,1.2c4.2,0,8.1-2.1,12-3.2c4.4-1.3,9-1.4,13.5-2.3c1.8-0.4,3.6-0.8,5.3-1.6
		c0.4-0.2,5.2-2.2,2.3-2.6c-4.2-0.5-8.5,0.1-12.5-1.5c-2.3-0.9-5.2-2.4-7.6-2.5c-4-0.1-6.6-1.9-10.2-3c-6.8-2.2-13.7-0.8-20.7-2
		c-2-0.3-7.3-1.1-9.1-0.1c0.2-0.1-1.5-0.6-1.3-0.7c-2.2,0.7-4.3,0.2-6.5,0.6C16.1,9.3,9.3,12.9,5.3,19.5C6.5,20.3,6.2,18,5.3,19.5z
		 M135.6,97.2C135.2,97.8,136.2,97.5,135.6,97.2C135.5,97.3,135.7,97.2,135.6,97.2z"/>
</g>
</svg>
